<svg xmlns="http://www.w3.org/2000/svg" version="1.1" xmlns:xlink="http://www.w3.org/1999/xlink" xmlns:svgjs="http://svgjs.dev/svgjs" width="2000" height="2250" viewBox="0 0 2000 2250"><g transform="matrix(1,0,0,1,3.410605131648481e-13,0)"><svg viewBox="0 0 320 360" data-background-color="#ffffff" preserveAspectRatio="xMidYMid meet" height="2250" width="2000" xmlns="http://www.w3.org/2000/svg" xmlns:xlink="http://www.w3.org/1999/xlink"><g id="tight-bounds" transform="matrix(1,0,0,1,0,0)"><svg viewBox="0 0 320 360" height="360" width="320"><g><svg></svg></g><g><svg viewBox="0 0 320 360" height="360" width="320"><g><path xmlns="http://www.w3.org/2000/svg" d="M20.961 227.22l3.726 4.658-1.863-6.056c-0.466-2.795-3.726 0.466-1.863 1.398M25.153 224.425c1.397 2.329 2.795 4.658 2.795 6.987 0 3.261 2.795 4.658 5.123 5.589-3.261-3.726-5.124-13.974-7.918-12.576M204.017 26.929c7.918 0 15.371-0.932 23.756 0.931 20.495 5.124 37.729 15.371 49.374 29.811l32.606 52.169c1.397 13.042 4.192 27.482 3.726 43.319 3.261 0 2.795-4.658 6.521-5.59-3.726 9.316-5.59 20.961-6.521 34.469-2.329-7.453 0-18.632 0.466-24.687-3.261 5.124-5.124 1.397-5.124-0.932 0.466-3.726-1.397-3.261-2.795-4.658-5.124-4.658-8.384-9.782-12.11-17.7 2.329-6.055 2.795-14.905-4.658-19.563-2.329-1.397-5.124-3.726-6.521-7.453-1.863-5.124-5.124-11.179-4.193-19.097 0.466-2.329-6.987 5.124-11.179 1.863-18.166-12.576-36.332-27.016-58.224-39.127-11.645 0-20.029-4.192-24.221-9.316-3.726-4.658-0.932-10.713 4.658-11.179 3.261 0 6.987-0.932 9.782 0.932 0.466-1.863 2.329-4.192 4.657-4.192M157.904 16.215l0.932 0.466c4.658 0.932 6.987 7.453 12.11 5.124 0 3.261 0.466 6.521-0.466 8.85-1.397 3.726-5.59 3.726-8.85 3.726-31.208-1.863-49.374 11.179-68.471 22.358-5.124 3.261-10.713 5.59-14.906 9.782-20.029 18.632-41.921 35.866-47.045 70.335l-4.192 38.195c-0.466 4.192-5.124 8.384-4.192 13.508l3.26 22.824c-3.261-3.261-5.124 0.932-4.192 2.795 0.466 1.397 2.329 6.055 5.124 1.863 3.726 6.987 7.453 20.495 12.576 26.55 15.837 18.632 36.332 35.4 53.101 52.169 4.192-0.932 7.453-0.932 8.384-3.727 1.397 2.795-1.397 5.59-3.726 6.056 7.453 4.658 15.837 8.85 27.016 9.781 14.44 0.932 27.948 3.261 40.524 6.522 6.521-1.863 13.042-2.795 20.029-3.261 2.329 0 3.726-3.726 6.521-4.658l0.466-4.658c2.795 4.192 2.329-1.397 0.466-4.192 3.261 2.795 4.192 5.124 5.589 6.987 0-1.397 3.726-6.521 3.727-0.466l0.931-6.055c1.397-0.932 1.863 5.124 3.261 0.931 1.397-4.192 4.192-0.932 6.987-2.329-0.932 1.863-0.466 5.59 2.794 3.261l3.727-3.261c2.329 5.59 6.055 3.261 7.918 2.329 20.495-13.042 40.99-28.413 60.553-43.784l-0.466 6.055 2.329-7.453c2.329 2.329 4.192 0.466 5.124-0.931 2.795-4.658 6.521-9.316 12.577-13.508-7.453 20.029-16.303 35.866-27.482 48.908l-4.658 5.59c0 3.261-0.932 7.453-4.658 7.918-1.863 0.466-5.59-0.932-8.384 1.863-1.397 1.863 3.261 5.59-0.466 2.795-3.261-2.329-6.521 0-10.248 0.932-2.795 0.932 1.863 3.726 2.795 5.589 0.932 1.863 1.863 3.726 1.398 6.056l-5.124-5.59c-6.055 3.261-9.782 9.316-14.906 13.974-2.329 1.863-1.397 5.124-1.397 7.918-3.261 0-6.987-0.932-8.85 0.932-1.397 1.863-0.932 4.658-0.932 7.453-4.658-0.466-5.124-7.453-9.315-6.056-4.192 0.932-8.85 1.397-12.577 3.727 2.795 5.59-4.658 2.329-3.726 3.26-6.987-4.192-13.042-7.453-20.495-4.658-15.837-5.124-35.4-2.795-49.84-0.931 0-2.329 0.466-4.658-0.466-5.124-0.932 2.329-3.726 1.397-3.26 1.397-8.85-6.055-17.7-9.782-27.016-14.905-8.384 0.932-16.303-3.261-18.632-5.59-6.521-6.055-13.974-2.795-20.029-4.192-13.042-3.261-17.7-16.769-19.098-26.084-0.932-4.658-4.658-6.521-6.055-6.056-6.055-19.563-15.371-37.263-22.824-55.429-1.863-4.658-1.397-9.316-1.397-14.44 2.329 0.932 4.658 0.466 4.192-2.794-2.329-15.371-7.918-27.016-13.974-38.195 3.261-15.837 3.726-34.469 11.179-48.443 6.521-12.576 18.632-19.098 27.016-29.811 2.795-3.726 2.795-8.85 5.59-12.11 9.316-9.316 18.632-19.098 28.879-27.482 4.658-3.726 10.247 0 17.234-1.397 2.329-8.384 11.645-15.837 20.495-13.508 3.726 0.932 11.179-8.85 13.508-9.782 3.726-1.397 1.863 3.726 1.863 6.987 8.85-6.987 20.961-10.713 32.14-14.906" fill="#1ebbd7" fill-rule="nonzero" stroke="none" stroke-width="1" stroke-linecap="butt" stroke-linejoin="miter" stroke-miterlimit="10" stroke-dasharray="" stroke-dashoffset="0" font-family="none" font-weight="none" font-size="none" text-anchor="none" style="mix-blend-mode: normal" data-fill-palette-color="tertiary"></path></g><g transform="matrix(1,0,0,1,64,112.23963133640554)"><svg viewBox="0 0 192 135.52073732718893" height="135.52073732718893" width="192"><g><svg viewBox="0 0 192 135.52073732718893" height="135.52073732718893" width="192"><g><svg viewBox="0 0 192 135.52073732718893" height="135.52073732718893" width="192"><g><svg viewBox="0 0 192 135.52073732718893" height="135.52073732718893" width="192"><g id="textblocktransform"><svg viewBox="0 0 192 135.52073732718893" height="135.52073732718893" width="192" id="textblock"><g><svg viewBox="0 0 192 135.52073732718893" height="135.52073732718893" width="192"><g transform="matrix(1,0,0,1,0,0)"><svg width="192" viewBox="-2.5999999046325684 -45.45000076293945 65.0999984741211 45.95000076293945" height="135.52073732718893" data-palette-color="#1ebbd7"><path d="M21.1 0.5Q19.8 0.5 19.1-0.33 18.4-1.15 18-3L18-3Q17.6-4.7 17.48-6.75 17.35-8.8 17.3-11.7L17.3-11.7 16.3-11.2 11.1-11.2Q10.3-8.85 8.85-6.98 7.4-5.1 5.65-4.15L5.65-4.15 5.65-4.1Q6.35-3.8 7.15-3.8L7.15-3.8Q7.75-3.8 8.45-4.05 9.15-4.3 9.3-4.3L9.3-4.3Q9.6-4.3 9.6-3.85L9.6-3.85Q9.6-3.2 9.1-2.5L9.1-2.5Q8.3-1.25 7.3-0.63 6.3 0 5.35 0L5.35 0Q4.75 0 3.15-0.4L3.15-0.4Q1.45-0.8 0.85-0.8L0.85-0.8Q0.1-0.8-0.93-0.4-1.95 0-2.15 0L-2.15 0Q-2.35 0-2.48-0.15-2.6-0.3-2.6-0.5L-2.6-0.5Q-2.6-1.05-2.15-2-1.7-2.95-1.1-3.2L-1.1-3.2Q-0.65-3.45 0.35-3.7L0.35-3.7Q2.3-4.4 3.6-5.9 4.9-7.4 5.85-9.6 6.8-11.8 8.25-15.95L8.25-15.95Q9.7-20.2 10.7-22.63 11.7-25.05 13.1-27.25 14.5-29.45 16.45-31.05L16.45-31.05 16.45-31.1Q16-31.1 14.7-31.3L14.7-31.3Q12.6-31.55 11.8-31.55L11.8-31.55Q9.35-31.55 7.43-30.53 5.5-29.5 4.3-27.55L4.3-27.55Q3.85-26.95 3.68-26.75 3.5-26.55 3.2-26.55L3.2-26.55Q2.8-26.55 2.8-27.15L2.8-27.15Q2.8-27.75 3-28.35L3-28.35Q3.9-31.45 6.63-33.33 9.35-35.2 13.25-35.2L13.25-35.2Q14.8-35.2 17.6-34.7L17.6-34.7Q20.5-34.2 21.95-34.2L21.95-34.2Q24-34.2 25.4-34.7L25.4-34.7 25.4-34.65Q24-32.2 23.28-27.45 22.55-22.7 22.55-16.25L22.55-16.25Q22.55-10.5 23.2-6.1L23.2-6.1Q23.3-5.15 23.63-4.78 23.95-4.4 24.6-4.4L24.6-4.4Q25.2-4.4 25.78-4.67 26.35-4.95 27.15-5.45L27.15-5.45Q27.9-6 28.15-6L28.15-6Q28.45-6 28.45-5.45L28.45-5.45Q28.45-4.85 28-4.1L28-4.1Q26.95-2.3 24.93-0.9 22.9 0.5 21.1 0.5L21.1 0.5ZM12.4-15.4L17.3-15.4Q17.45-19.95 17.88-23.25 18.3-26.55 19.15-29.7L19.15-29.7 19.1-29.7Q17-28 15.48-24.9 13.95-21.8 12.85-17.15L12.85-17.15 12.4-15.4ZM35.6 0Q35.2 0 35.2-0.6L35.2-0.6Q35.2-1.75 36.85-3.2L36.85-3.2Q37.9-4.25 38.3-5.2 38.7-6.15 39.2-8.8L39.2-8.8 42.95-30.2 39.95-30.2Q36.4-30.2 35.07-29.45 33.75-28.7 33.75-26.7L33.75-26.7Q33.75-25.45 34.15-24.55 34.55-23.65 34.55-23.45L34.55-23.45Q34.55-22.85 33.82-21.75 33.1-20.65 32.2-19.8 31.3-18.95 30.75-18.95L30.75-18.95Q30.55-18.95 30.42-19.13 30.3-19.3 30.25-19.35L30.25-19.35Q29.45-21.05 29.45-23.45L29.45-23.45Q29.45-26.6 31.05-29.18 32.65-31.75 35.55-33.23 38.45-34.7 42.15-34.7L42.15-34.7 52.85-34.7Q55.9-34.7 57.12-35.35 58.35-36 58.35-37.7L58.35-37.7Q58.35-38.85 57.85-39.8 57.35-40.75 57.35-41L57.35-41Q57.35-41.4 58.02-42.5 58.7-43.6 59.5-44.53 60.3-45.45 60.7-45.45L60.7-45.45Q60.85-45.45 60.95-45.38 61.05-45.3 61.1-45.25L61.1-45.25Q61.8-44.4 62.15-43.08 62.5-41.75 62.5-40.3L62.5-40.3Q62.5-35.6 59.02-32.9 55.55-30.2 49.75-30.2L49.75-30.2 48.3-30.2 44.15-6.55Q43.8-5.05 42.95-4.35L42.95-4.35 42.95-4.3Q43.8-3.85 44.95-3.85L44.95-3.85Q45.65-3.85 46.37-4.13 47.1-4.4 47.3-4.4L47.3-4.4Q47.55-4.4 47.62-4.3 47.7-4.2 47.7-3.95L47.7-3.95Q47.7-3.5 47.45-3.1 47.2-2.7 47.15-2.6L47.15-2.6Q45.95-1.15 45-0.58 44.05 0 43.15 0L43.15 0Q42.7 0 42.07-0.15 41.45-0.3 41.2-0.35L41.2-0.35Q39.75-0.8 38.7-0.8L38.7-0.8Q37.6-0.8 36.7-0.4 35.8 0 35.6 0L35.6 0Z" opacity="1" transform="matrix(1,0,0,1,0,0)" fill="#1ebbd7" class="wordmark-text-0" data-fill-palette-color="primary" id="text-0"></path></svg></g></svg></g></svg></g></svg></g><g></g></svg></g></svg></g></svg></g></svg></g><defs></defs></svg><rect width="320" height="360" fill="none" stroke="none" visibility="hidden"></rect></g></svg></g></svg>